<svg xmlns="http://www.w3.org/2000/svg" viewBox="0 0 256 257">
  <defs>
    <linearGradient id="a" x1="-.828%" x2="57.636%" y1="7.652%" y2="78.411%">
      <stop stop-color="#41D1FF" offset="0%"/>
      <stop stop-color="#BD34FE" offset="100%"/>
    </linearGradient>
    <linearGradient id="b" x1="43.376%" x2="50.316%" y1="2.242%" y2="89.03%">
      <stop stop-color="#FFEA83" offset="0%"/>
      <stop stop-color="#FFDD35" offset="8.333%"/>
      <stop stop-color="#FFA800" offset="100%"/>
    </linearGradient>
  </defs>
  <path fill="url(#a)" d="M255.153 37.938 134.897 252.976c-2.483 4.44-8.835 4.466-11.35.048L.875 37.958c-2.746-4.771 1.371-10.57 6.77-9.76l120.405 18.168a6.537 6.537 0 0 0 1.94-.004l118.396-18.144c5.38-.825 9.51 4.935 6.787 9.712Z"/>
  <path fill="url(#b)" d="m185.432.063-88.27 16.58a3.268 3.268 0 0 0-2.68 3.014l-5.128 92.352a3.268 3.268 0 0 0 3.997 3.402l24.706-5.562c2.318-.522 4.413 1.507 3.936 3.84l-7.342 36.047c-.495 2.43 1.782 4.5 4.151 3.78l15.257-4.649c2.372-.723 4.652 1.36 4.148 3.796l-11.698 57.54c-.732 3.602 3.978 5.474 6.039 2.438l1.313-1.947 72.516-144.72c1.215-2.422-.88-5.2-3.54-4.749l-25.475 4.222c-2.396.397-4.435-1.86-3.759-4.2l16.57-57.265c.677-2.343-1.37-4.603-3.77-4.2Z"/>
</svg>

